<svg width="346" height="42" viewBox="0 0 346 42" fill="none" xmlns="http://www.w3.org/2000/svg">
    <path d="M18.611,38.815C15.602,38.622 12.936,36.403 12.18,33.465C11.983,32.698 11.85,31.813 11.884,31.498C11.934,31.038 11.773,30.908 11.066,30.838C7.183,30.453 3.748,26.401 3.881,22.364C3.984,19.268 4.877,17.563 6.804,16.786C7.745,16.406 7.833,16.283 7.704,15.521C7.498,14.302 8.193,11.069 9.026,9.367C9.879,7.624 10.86,6.594 12.173,6.065C13.126,5.68 15.256,5.832 15.444,6.298C15.602,6.688 16.274,6.284 16.266,5.804C16.254,5.101 17.544,3.8 18.643,3.406C21.108,2.522 24.942,4.04 27.865,7.058C28.972,8.2 29.098,8.252 30.06,7.947C31.555,7.473 32.874,7.773 34.418,8.938C38.231,11.814 39.252,16.874 36.719,20.34L35.756,21.657L36.717,23.637C37.921,26.117 38.008,27.256 37.172,29.555C36.264,32.05 35.192,32.99 32.281,33.844C29.448,34.674 25.446,36.277 22.487,37.766C20.374,38.829 20.081,38.909 18.611,38.815L18.611,38.815ZM26.568,33.494C27.728,33.035 29.895,32.215 31.384,31.67C33.783,30.791 34.149,30.583 34.6,29.843C35.327,28.649 35.588,27.448 35.388,26.22C35.103,24.471 34.167,23.558 31.378,22.311C29.988,21.69 27.931,20.659 26.808,20.02C21.799,17.172 19.342,17.82 17.577,22.453C17.075,23.77 16.115,26.244 15.444,27.952C14.697,29.854 14.253,31.495 14.298,32.191C14.437,34.332 16.195,36.159 18.461,36.518C19.504,36.683 19.842,36.588 22.036,35.514C23.369,34.861 25.409,33.952 26.568,33.494ZM186.562,20.931L182.57,28.699C181.954,29.902 181.43,30.736 180.998,31.204C180.566,31.672 180.104,31.905 179.611,31.905C179.128,31.905 178.737,31.731 178.439,31.381C177.812,30.683 177.263,29.891 176.79,29.008L172.412,20.699C172.176,20.247 171.947,19.921 171.727,19.721C171.506,19.52 171.2,19.369 170.809,19.266C170.028,19.04 169.638,18.619 169.638,18.002C169.638,17.375 170.121,16.918 171.087,16.63C172.053,16.342 173.579,16.199 175.665,16.199C177.412,16.199 178.699,16.324 179.526,16.576C180.353,16.828 180.767,17.216 180.767,17.74C180.767,18.11 180.572,18.464 180.181,18.804C179.934,19.03 179.775,19.199 179.703,19.312C179.631,19.425 179.595,19.569 179.595,19.744C179.595,20.093 179.821,20.674 180.274,21.486C180.726,22.277 181.147,22.672 181.537,22.672C181.794,22.672 182.005,22.575 182.169,22.38C182.334,22.184 182.632,21.681 183.063,20.869C183.382,20.273 183.541,19.821 183.541,19.513C183.541,19.266 183.377,18.973 183.048,18.634C182.699,18.264 182.524,17.92 182.524,17.601C182.524,17.108 182.85,16.753 183.503,16.538C184.155,16.322 185.227,16.214 186.717,16.214C188.813,16.214 189.861,16.666 189.861,17.57C189.861,18.094 189.486,18.475 188.736,18.711C188.15,18.896 187.752,19.096 187.541,19.312C187.331,19.528 187.004,20.067 186.562,20.931ZM124.444,16.106C124.958,16.106 125.795,16.219 126.957,16.445C127.193,16.486 127.388,16.507 127.542,16.507C127.717,16.507 128.056,16.414 128.56,16.229C128.796,16.137 128.996,16.091 129.161,16.091C129.634,16.091 130.111,16.394 130.594,17C130.985,17.483 131.303,18.012 131.55,18.588C131.797,19.163 131.92,19.662 131.92,20.083C131.92,20.494 131.776,20.836 131.488,21.108C131.201,21.38 130.841,21.516 130.409,21.516C130.05,21.516 129.729,21.429 129.446,21.254C129.163,21.08 128.709,20.694 128.082,20.098C127.424,19.461 126.88,19.143 126.448,19.143C126.16,19.143 125.911,19.248 125.7,19.459C125.49,19.669 125.384,19.918 125.384,20.206C125.384,20.71 125.867,21.182 126.833,21.624C128.57,22.405 129.901,23.258 130.826,24.183C131.607,24.964 131.997,25.92 131.997,27.05C131.997,28.478 131.37,29.67 130.117,30.626C129.038,31.458 127.717,31.875 126.155,31.875C125.754,31.875 125.025,31.808 123.966,31.674C122.97,31.561 122.41,31.505 122.286,31.505C122.153,31.505 121.999,31.52 121.824,31.551C121.526,31.592 121.31,31.613 121.176,31.613C120.693,31.613 120.313,31.489 120.036,31.243C119.614,30.862 119.224,30.264 118.864,29.447C118.505,28.63 118.325,27.929 118.325,27.343C118.325,26.397 118.695,25.925 119.435,25.925C119.722,25.925 119.987,26.02 120.228,26.21C120.47,26.4 120.976,26.906 121.747,27.728C122.168,28.18 122.517,28.491 122.795,28.661C123.072,28.83 123.37,28.915 123.689,28.915C124.028,28.915 124.3,28.825 124.506,28.645C124.711,28.465 124.814,28.227 124.814,27.929C124.814,27.466 124.418,27.045 123.627,26.665C121.973,25.853 120.778,25.015 120.043,24.152C119.309,23.289 118.941,22.292 118.941,21.162C118.941,19.939 119.316,18.886 120.067,18.002C121.135,16.738 122.595,16.106 124.444,16.106ZM259.162,11.343L258.962,17.355L258.962,17.694C258.962,17.899 259.029,18.002 259.162,18.002C259.234,18.002 259.44,17.863 259.779,17.586C260.981,16.599 262.307,16.106 263.756,16.106C265.194,16.106 266.463,16.625 267.563,17.663C268.94,18.968 269.628,20.669 269.628,22.765C269.628,25.755 268.513,28.144 266.283,29.932C264.68,31.227 262.8,31.875 260.642,31.875C259.573,31.875 258.61,31.738 257.752,31.466C256.894,31.194 255.956,30.729 254.939,30.071C254.785,29.979 254.661,29.932 254.569,29.932C254.456,29.932 254.137,30.03 253.613,30.225C253.346,30.328 253.033,30.379 252.673,30.379C252.036,30.379 251.717,30.174 251.717,29.763C251.717,29.629 251.743,29.475 251.794,29.3C252,28.632 252.139,27.805 252.211,26.819C252.282,25.832 252.318,24.27 252.318,22.133L252.318,17.879C252.318,16.82 252.277,16.157 252.195,15.89C252.113,15.623 251.882,15.412 251.501,15.258C250.967,15.032 250.597,14.809 250.392,14.588C250.186,14.367 250.083,14.087 250.083,13.748C250.083,13.059 250.818,12.386 252.288,11.729C253.089,11.379 254.088,11.073 255.286,10.811C256.483,10.549 257.508,10.418 258.361,10.418C258.905,10.418 259.172,10.727 259.162,11.343ZM153.731,20.145L153.731,25.354C153.731,25.971 153.882,26.475 154.185,26.865C154.489,27.255 154.876,27.451 155.349,27.451C155.75,27.451 156.279,27.266 156.937,26.896C157.091,26.803 157.245,26.757 157.399,26.757C157.646,26.757 157.872,26.906 158.077,27.204C158.283,27.502 158.386,27.826 158.386,28.175C158.386,28.812 158.036,29.424 157.338,30.009C155.878,31.253 154.111,31.875 152.035,31.875C150.391,31.875 149.071,31.41 148.074,30.48C147.077,29.55 146.579,28.324 146.579,26.803L146.579,19.682C146.579,19.446 146.55,19.299 146.494,19.243C146.437,19.186 146.291,19.158 146.055,19.158L144.467,19.158C144.169,19.158 143.979,19.109 143.897,19.012C143.814,18.914 143.773,18.685 143.773,18.326L143.773,17.647C143.784,17.339 143.902,17.113 144.128,16.969L151.187,12.53C151.362,12.438 151.578,12.391 151.835,12.391L153.083,12.391C153.34,12.391 153.512,12.45 153.6,12.569C153.687,12.687 153.731,12.921 153.731,13.27L153.731,15.351C153.731,15.659 153.78,15.859 153.877,15.952C153.975,16.044 154.183,16.091 154.501,16.091L157.353,16.091C157.733,16.091 157.98,16.16 158.093,16.299C158.206,16.437 158.262,16.733 158.262,17.185L158.262,18.094C158.262,18.588 158.19,18.929 158.047,19.119C157.903,19.31 157.641,19.405 157.261,19.405L154.471,19.405C154.183,19.405 153.988,19.456 153.885,19.559C153.782,19.662 153.731,19.857 153.731,20.145ZM79.189,16.091C80.977,16.091 82.493,16.543 83.736,17.447C84.394,17.93 84.853,18.482 85.115,19.104C85.377,19.726 85.509,20.581 85.509,21.671L85.478,23.967C85.478,25.56 85.591,26.593 85.817,27.065C85.93,27.291 86.038,27.435 86.14,27.497C86.243,27.559 86.459,27.615 86.788,27.667C87.117,27.718 87.281,27.934 87.281,28.314C87.281,28.807 87.083,29.321 86.688,29.855C86.292,30.39 85.781,30.837 85.154,31.196C84.383,31.648 83.577,31.875 82.734,31.875C81.655,31.875 80.802,31.505 80.175,30.765C79.959,30.498 79.759,30.364 79.574,30.364C79.369,30.364 79.096,30.492 78.757,30.749C77.73,31.499 76.563,31.875 75.258,31.875C73.912,31.875 72.823,31.587 71.99,31.011C71.446,30.631 71.014,30.135 70.696,29.524C70.377,28.912 70.218,28.273 70.218,27.605C70.218,26.536 70.649,25.591 71.513,24.769C72.859,23.474 74.873,22.821 77.555,22.811C78.151,22.811 78.526,22.752 78.68,22.634C78.834,22.516 78.911,22.241 78.911,21.809C78.911,20.72 78.798,19.931 78.572,19.443C78.346,18.955 77.976,18.711 77.462,18.711C77.154,18.711 76.879,18.804 76.638,18.988C76.396,19.173 76.096,19.513 75.736,20.006C74.822,21.311 73.866,21.963 72.869,21.963C72.366,21.963 71.955,21.814 71.636,21.516C71.317,21.218 71.158,20.828 71.158,20.345C71.158,19.852 71.356,19.358 71.752,18.865C72.147,18.372 72.684,17.94 73.362,17.57C75.222,16.584 77.164,16.091 79.189,16.091ZM293.643,16.106C294.157,16.106 294.995,16.219 296.156,16.445C296.392,16.486 296.587,16.507 296.741,16.507C296.916,16.507 297.255,16.414 297.759,16.229C297.995,16.137 298.195,16.091 298.36,16.091C298.833,16.091 299.31,16.394 299.793,17C300.184,17.483 300.502,18.012 300.749,18.588C300.996,19.163 301.119,19.662 301.119,20.083C301.119,20.494 300.975,20.836 300.687,21.108C300.4,21.38 300.04,21.516 299.608,21.516C299.249,21.516 298.928,21.429 298.645,21.254C298.362,21.08 297.908,20.694 297.281,20.098C296.623,19.461 296.079,19.143 295.647,19.143C295.359,19.143 295.11,19.248 294.899,19.459C294.689,19.669 294.583,19.918 294.583,20.206C294.583,20.71 295.066,21.182 296.032,21.624C297.769,22.405 299.1,23.258 300.025,24.183C300.806,24.964 301.196,25.92 301.196,27.05C301.196,28.478 300.569,29.67 299.316,30.626C298.237,31.458 296.916,31.875 295.354,31.875C294.953,31.875 294.224,31.808 293.165,31.674C292.169,31.561 291.609,31.505 291.485,31.505C291.352,31.505 291.198,31.52 291.023,31.551C290.725,31.592 290.509,31.613 290.375,31.613C289.892,31.613 289.512,31.489 289.235,31.243C288.814,30.862 288.423,30.264 288.063,29.447C287.704,28.63 287.524,27.929 287.524,27.343C287.524,26.397 287.894,25.925 288.634,25.925C288.921,25.925 289.186,26.02 289.428,26.21C289.669,26.4 290.175,26.906 290.946,27.728C291.367,28.18 291.716,28.491 291.994,28.661C292.271,28.83 292.569,28.915 292.888,28.915C293.227,28.915 293.499,28.825 293.705,28.645C293.91,28.465 294.013,28.227 294.013,27.929C294.013,27.466 293.618,27.045 292.826,26.665C291.172,25.853 289.977,25.015 289.243,24.152C288.508,23.289 288.14,22.292 288.14,21.162C288.14,19.939 288.516,18.886 289.266,18.002C290.334,16.738 291.794,16.106 293.643,16.106ZM203.487,24.553L196.242,24.553C195.924,24.553 195.765,24.692 195.765,24.969C195.765,25.637 196.127,26.266 196.851,26.857C197.576,27.448 198.354,27.744 199.186,27.744C199.68,27.744 200.227,27.649 200.828,27.458C201.429,27.268 201.925,27.035 202.316,26.757C202.665,26.51 202.942,26.387 203.148,26.387C203.415,26.387 203.677,26.552 203.934,26.88C204.191,27.209 204.319,27.548 204.319,27.898C204.319,28.638 203.857,29.352 202.932,30.04C201.298,31.263 199.413,31.875 197.275,31.875C195.117,31.875 193.309,31.248 191.849,29.994C191.14,29.377 190.555,28.632 190.092,27.759C189.486,26.598 189.183,25.375 189.183,24.09C189.183,22.364 189.707,20.812 190.755,19.435C191.659,18.243 192.81,17.355 194.208,16.769C195.256,16.327 196.391,16.106 197.614,16.106C199.567,16.106 201.226,16.661 202.593,17.771C203.281,18.326 203.836,18.983 204.258,19.744C204.741,20.607 204.982,21.45 204.982,22.272C204.982,22.94 204.843,23.487 204.566,23.913C204.288,24.34 203.929,24.553 203.487,24.553ZM284.981,24.553L277.736,24.553C277.417,24.553 277.258,24.692 277.258,24.969C277.258,25.637 277.62,26.266 278.345,26.857C279.069,27.448 279.848,27.744 280.68,27.744C281.173,27.744 281.721,27.649 282.322,27.458C282.923,27.268 283.419,27.035 283.809,26.757C284.159,26.51 284.436,26.387 284.641,26.387C284.909,26.387 285.171,26.552 285.428,26.88C285.684,27.209 285.813,27.548 285.813,27.898C285.813,28.638 285.351,29.352 284.426,30.04C282.792,31.263 280.906,31.875 278.769,31.875C276.611,31.875 274.802,31.248 273.343,29.994C272.634,29.377 272.048,28.632 271.586,27.759C270.98,26.598 270.676,25.375 270.676,24.09C270.676,22.364 271.201,20.812 272.249,19.435C273.153,18.243 274.304,17.355 275.701,16.769C276.75,16.327 277.885,16.106 279.108,16.106C281.06,16.106 282.72,16.661 284.087,17.771C284.775,18.326 285.33,18.983 285.751,19.744C286.234,20.607 286.476,21.45 286.476,22.272C286.476,22.94 286.337,23.487 286.06,23.913C285.782,24.34 285.422,24.553 284.981,24.553ZM235.132,15.197L228.057,29.516C227.625,30.4 227.214,31.009 226.824,31.343C226.433,31.677 225.94,31.844 225.344,31.844C224.851,31.844 224.409,31.736 224.018,31.52C223.72,31.356 223.487,31.163 223.317,30.942C223.147,30.721 222.934,30.323 222.677,29.747L216.373,15.859C216.024,15.078 215.708,14.547 215.425,14.264C215.142,13.982 214.739,13.794 214.215,13.701C213.599,13.588 213.29,13.208 213.29,12.561C213.29,11.77 213.83,11.161 214.909,10.734C215.988,10.308 217.534,10.095 219.548,10.095C221.645,10.095 223.186,10.254 224.173,10.572C225.159,10.891 225.652,11.384 225.652,12.052C225.652,12.484 225.385,12.885 224.851,13.254C224.44,13.532 224.234,13.794 224.234,14.041C224.234,14.267 224.327,14.59 224.512,15.012L226.438,19.358C226.716,19.996 227.029,20.314 227.379,20.314C227.718,20.314 228.021,20.145 228.288,19.805C228.555,19.466 228.915,18.798 229.367,17.802C230.179,16.014 230.652,14.958 230.785,14.634C230.919,14.31 230.985,14.061 230.985,13.886C230.985,13.537 230.744,13.239 230.261,12.992C229.727,12.715 229.459,12.36 229.459,11.929C229.459,10.706 231.099,10.095 234.377,10.095C236.01,10.095 237.164,10.226 237.837,10.488C238.51,10.75 238.847,11.199 238.847,11.836C238.847,12.597 238.405,13.034 237.521,13.147C236.894,13.219 236.488,13.321 236.303,13.455C235.974,13.691 235.584,14.272 235.132,15.197ZM105.285,28.792L103.697,26.248C103.327,25.673 103.088,25.329 102.98,25.216C102.872,25.103 102.731,25.046 102.556,25.046C102.186,25.046 101.806,25.385 101.416,26.063L98.842,30.503C98.348,31.356 97.793,31.782 97.177,31.782C96.797,31.782 96.447,31.651 96.129,31.389C95.81,31.127 95.466,30.683 95.096,30.056L90.472,22.364C89.701,21.121 89.1,20.309 88.668,19.929C88.463,19.764 88.088,19.605 87.543,19.451C87.317,19.379 87.13,19.238 86.981,19.027C86.832,18.816 86.757,18.583 86.757,18.326C86.757,17.534 87.368,16.98 88.591,16.661C89.824,16.353 91.171,16.199 92.63,16.199C95.908,16.199 97.547,16.81 97.547,18.033C97.547,18.259 97.388,18.603 97.069,19.066C97.007,19.158 96.977,19.256 96.977,19.358C96.977,19.584 97.218,20.145 97.701,21.039C98.235,22.056 98.698,22.565 99.088,22.565C99.314,22.565 99.602,22.308 99.951,21.794C100.301,21.28 100.475,20.864 100.475,20.545C100.475,20.227 100.398,19.972 100.244,19.782C100.09,19.592 99.725,19.292 99.15,18.881C98.8,18.634 98.626,18.341 98.626,18.002C98.626,17.2 99.448,16.676 101.092,16.43C102.089,16.276 103.26,16.199 104.606,16.199C106.158,16.199 107.278,16.33 107.967,16.592C108.655,16.854 108.999,17.278 108.999,17.863C108.999,18.1 108.958,18.29 108.876,18.434C108.794,18.577 108.573,18.834 108.213,19.204C108.1,19.328 108.044,19.487 108.044,19.682C108.044,19.96 108.28,20.545 108.753,21.439C109.164,22.22 109.539,22.611 109.878,22.611C110.248,22.611 110.715,22.112 111.281,21.116C111.692,20.365 111.897,19.867 111.897,19.62C111.897,19.425 111.733,19.122 111.404,18.711C111.168,18.423 111.049,18.11 111.049,17.771C111.049,17.236 111.291,16.866 111.774,16.661C112.452,16.363 113.439,16.214 114.733,16.214C115.607,16.214 116.383,16.281 117.061,16.414C117.451,16.497 117.77,16.664 118.017,16.915C118.263,17.167 118.386,17.457 118.386,17.786C118.386,18.115 118.243,18.392 117.955,18.619C117.904,18.67 117.544,18.814 116.876,19.05C116.496,19.194 116.182,19.4 115.936,19.667C115.689,19.934 115.391,20.412 115.042,21.1L111.188,28.561C110.058,30.739 109.061,31.828 108.198,31.828C107.828,31.828 107.419,31.595 106.972,31.127C106.525,30.659 105.963,29.881 105.285,28.792ZM52.014,24.198L52.014,16.091C52.014,15.043 51.942,14.377 51.798,14.095C51.654,13.812 51.264,13.583 50.627,13.409C49.702,13.141 49.239,12.679 49.239,12.021C49.239,11.559 49.435,11.204 49.825,10.958C50.216,10.711 50.781,10.588 51.521,10.588C51.767,10.588 52.379,10.603 53.355,10.634L54.28,10.634C55.986,10.624 56.985,10.611 57.278,10.596C57.571,10.58 58.616,10.49 60.415,10.326C61.011,10.264 61.555,10.233 62.048,10.233C63.734,10.233 65.234,10.578 66.549,11.266C68.841,12.458 69.987,14.349 69.987,16.938C69.987,19.035 69.185,20.715 67.582,21.979C66.072,23.161 64.242,23.751 62.095,23.751C61.55,23.751 60.882,23.715 60.091,23.643C59.67,23.613 59.408,23.597 59.305,23.597C59.007,23.597 58.858,23.767 58.858,24.106L58.858,24.198L58.966,26.726C58.986,27.22 59.076,27.587 59.235,27.828C59.395,28.07 59.721,28.319 60.214,28.576C60.882,28.936 61.216,29.326 61.216,29.747C61.216,30.395 60.723,30.893 59.736,31.243C58.75,31.592 57.352,31.767 55.544,31.767C51.742,31.767 49.841,31.114 49.841,29.809C49.841,29.501 49.923,29.264 50.087,29.1C50.252,28.936 50.637,28.699 51.243,28.391C51.613,28.196 51.829,27.923 51.891,27.574C51.952,27.225 51.993,26.099 52.014,24.198ZM141.893,17.17L141.893,26.125C141.893,26.834 141.957,27.353 142.085,27.682C142.214,28.011 142.473,28.314 142.864,28.591C143.182,28.817 143.396,29.01 143.504,29.169C143.611,29.329 143.665,29.532 143.665,29.778C143.665,31.104 141.985,31.767 138.625,31.767C136.816,31.767 135.383,31.623 134.325,31.335C133.965,31.232 133.675,31.052 133.454,30.796C133.233,30.539 133.122,30.246 133.122,29.917C133.122,29.64 133.179,29.424 133.292,29.27C133.405,29.115 133.693,28.869 134.155,28.53C134.474,28.293 134.7,27.908 134.833,27.374C134.967,26.839 135.034,26.043 135.034,24.985C135.034,24.645 135.01,24.011 134.964,23.081C134.918,22.151 134.885,21.609 134.864,21.455C134.802,21.033 134.515,20.71 134.001,20.484C133.364,20.206 133.045,19.795 133.045,19.251C133.045,18.603 133.461,18.12 134.294,17.802C135.445,17.36 136.678,16.985 137.993,16.676C139.308,16.368 140.326,16.214 141.045,16.214C141.61,16.214 141.893,16.533 141.893,17.17ZM248.095,17.17L248.095,26.125C248.095,26.834 248.159,27.353 248.288,27.682C248.416,28.011 248.676,28.314 249.066,28.591C249.385,28.817 249.598,29.01 249.706,29.169C249.814,29.329 249.868,29.532 249.868,29.778C249.868,31.104 248.187,31.767 244.827,31.767C243.019,31.767 241.585,31.623 240.527,31.335C240.167,31.232 239.877,31.052 239.656,30.796C239.435,30.539 239.324,30.246 239.324,29.917C239.324,29.64 239.381,29.424 239.494,29.27C239.607,29.115 239.895,28.869 240.357,28.53C240.676,28.293 240.902,27.908 241.035,27.374C241.169,26.839 241.236,26.043 241.236,24.985C241.236,24.645 241.213,24.011 241.166,23.081C241.12,22.151 241.087,21.609 241.066,21.455C241.005,21.033 240.717,20.71 240.203,20.484C239.566,20.206 239.247,19.795 239.247,19.251C239.247,18.603 239.664,18.12 240.496,17.802C241.647,17.36 242.88,16.985 244.195,16.676C245.511,16.368 246.528,16.214 247.247,16.214C247.812,16.214 248.095,16.533 248.095,17.17ZM167.757,17.17L167.757,26.125C167.757,26.834 167.822,27.353 167.95,27.682C168.079,28.011 168.338,28.314 168.728,28.591C169.047,28.817 169.26,29.01 169.368,29.169C169.476,29.329 169.53,29.532 169.53,29.778C169.53,31.104 167.85,31.767 164.49,31.767C162.681,31.767 161.248,31.623 160.189,31.335C159.829,31.232 159.539,31.052 159.318,30.796C159.097,30.539 158.987,30.246 158.987,29.917C158.987,29.64 159.043,29.424 159.156,29.27C159.269,29.115 159.557,28.869 160.02,28.53C160.338,28.293 160.564,27.908 160.698,27.374C160.831,26.839 160.898,26.043 160.898,24.985C160.898,24.645 160.875,24.011 160.829,23.081C160.783,22.151 160.749,21.609 160.729,21.455C160.667,21.033 160.379,20.71 159.865,20.484C159.228,20.206 158.91,19.795 158.91,19.251C158.91,18.603 159.326,18.12 160.158,17.802C161.309,17.36 162.542,16.985 163.858,16.676C165.173,16.368 166.19,16.214 166.91,16.214C167.475,16.214 167.757,16.533 167.757,17.17ZM260.488,20.746C259.933,20.746 259.532,20.936 259.286,21.316C259.09,21.604 258.993,22.189 258.993,23.073C258.993,25.488 259.075,27.117 259.239,27.959C259.383,28.74 259.82,29.131 260.549,29.131C261.3,29.131 261.87,28.812 262.26,28.175C262.651,27.538 262.846,26.613 262.846,25.401C262.846,23.613 262.517,22.308 261.86,21.486C261.479,21.013 261.022,20.766 260.488,20.746ZM78.156,25.015C77.704,25.015 77.311,25.2 76.977,25.57C76.643,25.94 76.476,26.382 76.476,26.896C76.476,27.389 76.594,27.787 76.83,28.09C77.067,28.394 77.38,28.545 77.771,28.545C78.593,28.545 79.004,27.852 79.004,26.464C79.004,25.899 78.945,25.519 78.827,25.324C78.708,25.128 78.485,25.026 78.156,25.015ZM14.292,26.92C15.698,24.761 13.507,21.014 9.911,19.427C8.888,18.976 8.343,18.914 7.693,19.176C6.148,19.8 5.684,22.311 6.661,24.767C8.192,28.614 12.412,29.805 14.292,26.92ZM196.643,21.671L198.2,21.671C198.858,21.671 199.186,21.367 199.186,20.761C199.186,20.206 199.027,19.754 198.709,19.405C198.39,19.055 197.974,18.881 197.46,18.881C196.885,18.881 196.433,19.107 196.104,19.559C195.795,19.98 195.641,20.407 195.641,20.838C195.641,21.146 195.716,21.362 195.865,21.486C196.014,21.609 196.273,21.671 196.643,21.671ZM278.137,21.671L279.694,21.671C280.351,21.671 280.68,21.367 280.68,20.761C280.68,20.206 280.521,19.754 280.202,19.405C279.884,19.055 279.468,18.881 278.954,18.881C278.378,18.881 277.926,19.107 277.597,19.559C277.289,19.98 277.135,20.407 277.135,20.838C277.135,21.146 277.209,21.362 277.358,21.486C277.507,21.609 277.767,21.671 278.137,21.671ZM34.382,19.678C36.542,17.182 36.179,13.446 33.551,11.133C31.744,9.544 30.315,9.788 29.308,11.859C27.91,14.733 28.434,18.868 30.344,20.036C31.812,20.933 33.418,20.791 34.382,19.678ZM58.966,14.133L58.966,19.374C58.966,19.775 59.053,20.016 59.228,20.098C59.526,20.242 59.901,20.314 60.353,20.314C61.031,20.314 61.601,20.124 62.064,19.744C62.732,19.199 63.066,18.285 63.066,17C63.066,15.664 62.675,14.698 61.894,14.102C61.401,13.722 60.805,13.532 60.106,13.532C59.346,13.532 58.966,13.732 58.966,14.133ZM17.472,18.821C17.842,18.284 18.179,17.187 18.247,16.301C18.347,14.999 18.213,14.354 17.457,12.496C15.991,8.894 13.947,7.368 12.247,8.606C11.343,9.264 10.041,12.25 9.928,13.924C9.589,18.936 14.985,22.439 17.472,18.821ZM27.079,14.512C27.737,13.088 27.727,11.75 27.046,10.081C26.362,8.406 25.118,7.163 23.181,6.221C20.821,5.073 18.975,5.187 18.488,6.511C17.871,8.192 18.82,12.538 20.203,14.363C21.008,15.425 22.963,16.57 24.011,16.594C25.128,16.619 26.552,15.653 27.079,14.512ZM245.043,10.418C245.937,10.418 246.646,10.585 247.17,10.919C247.694,11.253 247.956,11.703 247.956,12.268C247.956,13.059 247.561,13.686 246.769,14.148C245.516,14.878 244,15.243 242.222,15.243C241.472,15.243 240.876,15.099 240.434,14.811C239.838,14.441 239.54,13.928 239.54,13.27C239.54,12.386 240.172,11.693 241.436,11.189C242.721,10.675 243.923,10.418 245.043,10.418ZM164.705,10.418C165.599,10.418 166.308,10.585 166.833,10.919C167.357,11.253 167.619,11.703 167.619,12.268C167.619,13.059 167.223,13.686 166.432,14.148C165.178,14.878 163.662,15.243 161.885,15.243C161.135,15.243 160.539,15.099 160.097,14.811C159.501,14.441 159.203,13.928 159.203,13.27C159.203,12.386 159.835,11.693 161.099,11.189C162.383,10.675 163.585,10.418 164.705,10.418ZM138.841,10.418C139.735,10.418 140.444,10.585 140.968,10.919C141.492,11.253 141.754,11.703 141.754,12.268C141.754,13.059 141.358,13.686 140.567,14.148C139.314,14.878 137.798,15.243 136.02,15.243C135.27,15.243 134.674,15.099 134.232,14.811C133.636,14.441 133.338,13.928 133.338,13.27C133.338,12.386 133.97,11.693 135.234,11.189C136.518,10.675 137.721,10.418 138.841,10.418Z" style="fill:white;fill-rule:nonzero;"/>

</svg>
